<?xml version="1.0" standalone="no"?><!DOCTYPE svg PUBLIC "-//W3C//DTD SVG 1.1//EN" "http://www.w3.org/Graphics/SVG/1.1/DTD/svg11.dtd"><svg t="1674983204409" class="icon" viewBox="0 0 1027 1024" version="1.1" xmlns="http://www.w3.org/2000/svg" p-id="10504" id="mx_n_1674983204411" xmlns:xlink="http://www.w3.org/1999/xlink" width="200.5859375" height="200"><path d="M603.136 514.56c3.584 9.728 5.12 20.48 5.12 30.72 0 26.112-9.728 50.176-28.16 68.096-18.432 18.432-43.008 28.16-68.096 28.16-53.248 0-96.768-43.52-96.768-96.768 0-10.24 1.536-20.992 5.12-30.72H101.888v297.984c0 44.032 35.84 79.872 79.872 79.872h660.992c44.032 0 79.872-35.84 79.872-79.872v-297.984h-319.488z" fill="#34495E" p-id="10505"></path><path d="M467.456 514.56l-5.632 10.752c-2.56 6.144-4.096 13.312-4.096 20.48 0 30.208 24.064 54.272 54.272 54.272s54.272-24.064 54.272-54.272c0-7.168-1.024-13.824-4.096-20.48l-5.12-10.752H467.456zM922.112 321.024c0-44.032-35.84-79.872-79.872-79.872h-170.496v-30.72c0-52.224-43.008-94.72-94.72-94.72H447.488c-52.224 0-94.72 43.008-94.72 94.72v30.72H181.248c-44.032 0-79.872 35.84-79.872 79.872v151.04H921.6V321.024zM411.648 210.944c0-19.456 16.384-35.84 35.84-35.84h129.536c19.456 0 35.84 16.384 35.84 35.84v30.72H411.648v-30.72z" fill="#34495E" p-id="10506"></path></svg>