<?xml version="1.0" standalone="no"?><!DOCTYPE svg PUBLIC "-//W3C//DTD SVG 1.1//EN" "http://www.w3.org/Graphics/SVG/1.1/DTD/svg11.dtd"><svg t="1674980534190" class="icon" viewBox="0 0 1024 1024" version="1.1" xmlns="http://www.w3.org/2000/svg" p-id="2926" xmlns:xlink="http://www.w3.org/1999/xlink" width="200" height="200"><path d="M904.2 764.3h-56v-560c0-30.9-25.1-56-56-56h-224c-30.9 0-56 25.1-56 56v560h-56v-448c0-30.9-25.1-56-56-56h-168c-30.9 0-56 25.1-56 56v448h-56c-30.9 0-56 25.1-56 56s25.1 56 56 56h784c30.9 0 56-25.1 56-56s-25.1-56-56-56z m-560-392h56v56h-56v-56z m0 112h56v56h-56v-56z m0 112h56v56h-56v-56z m-112-224h56v56h-56v-56z m0 112h56v56h-56v-56z m0 112h56v56h-56v-56z m0 168v-56h56v56h-56z m112 0v-56h56v56h-56z m364-504h84v84h-84v-84z m0 140h84v84h-84v-84z m0 140h84v84h-84v-84z m-140-280h84v84h-84v-84z m0 140h84v84h-84v-84z m0 140h84v84h-84v-84z m0 224v-84h84v84h-84z m140 0v-84h84v84h-84z" p-id="2927" fill="#ffffff"></path></svg>